<?xml version="1.0" encoding="UTF-8" standalone="no"?>
<!-- Created with Inkscape (http://www.inkscape.org/) -->
<svg
   xmlns:svg="http://www.w3.org/2000/svg"
   xmlns="http://www.w3.org/2000/svg"
   version="1.0"
   width="93"
   height="58"
   id="svg2">
  <defs
     id="defs4" />
  <g
     transform="translate(-222.69571,-519.67832)"
     id="layer1">
    <g
       transform="matrix(0.4908914,0,0,0.4908914,221.00597,503.62606)"
       id="g2438">
      <g
         transform="translate(-201.262,-274.676)"
         id="g12"
         style="fill:#e8a97f;fill-rule:evenodd;stroke-width:0;stroke-linecap:butt;stroke-linejoin:miter;stroke-miterlimit:2.61310005">
        <path
           d="M 370.258,352.539 L 363.289,335.609 L 357.563,348.383 L 357.563,347.281 L 363.621,331.945 L 370.918,349.457 L 370.258,352.539 z"
           id="path14" />
      </g>
      <g
         transform="translate(-201.262,-274.676)"
         id="g16"
         style="fill:#005699;fill-opacity:1;fill-rule:evenodd;stroke-width:0;stroke-linecap:butt;stroke-linejoin:miter;stroke-miterlimit:2.61310005">
        <path
           d="M 6.84375,132.25 L 6.84375,147.3125 L 143.1875,147.3125 L 143.1875,132.25 L 6.84375,132.25 z M 11.21875,135.25 L 19,135.25 C 20.394001,135.25 21.0625,135.76225 21.0625,137.03125 L 21.0625,138.125 C 21.062499,139.003 20.47675,139.53125 19.46875,139.65625 C 20.527751,139.79625 21.125,140.43325 21.125,141.40625 L 21.125,142.5625 C 21.125,143.7815 20.2225,144.34375 18.4375,144.34375 L 11.21875,144.34375 L 11.21875,135.25 z M 107.34375,135.25 L 109.4375,135.25 L 109.4375,142.65625 L 116.28125,142.65625 L 116.28125,144.34375 L 107.34375,144.34375 L 107.34375,135.25 z M 13.28125,136.75 L 13.28125,138.90625 L 18.125,138.90625 C 18.777,138.90624 19.09375,138.781 19.09375,138.25 L 19.09375,137.375 C 19.09375,136.844 18.777,136.75 18.125,136.75 L 13.28125,136.75 z M 24.3125,136.90625 L 32.34375,136.90625 L 32.34375,138.21875 L 26.15625,138.21875 L 26.15625,139.84375 L 29.75,139.84375 L 29.75,141.125 L 26.15625,141.125 L 26.15625,142.96875 L 32.4375,142.96875 L 32.4375,144.34375 L 24.3125,144.34375 L 24.3125,136.90625 z M 35.34375,136.90625 L 42.0625,136.90625 C 43.266499,136.90625 43.8125,137.30075 43.8125,138.34375 L 43.8125,140.09375 C 43.812499,141.11376 43.2665,141.53125 42.0625,141.53125 L 41.03125,141.53125 L 44.5625,144.34375 L 41.96875,144.34375 L 38.84375,141.53125 L 37.125,141.53125 L 37.125,144.34375 L 35.34375,144.34375 L 35.34375,136.90625 z M 46.90625,136.90625 L 48.75,136.90625 L 48.75,139.90625 L 53.09375,136.90625 L 55.75,136.90625 L 50.59375,140.34375 L 56.3125,144.34375 L 53.4375,144.34375 L 48.75,141 L 48.75,144.34375 L 46.90625,144.34375 L 46.90625,136.90625 z M 58.3125,136.90625 L 66.3125,136.90625 L 66.3125,138.21875 L 60.125,138.21875 L 60.125,139.84375 L 63.71875,139.84375 L 63.71875,141.125 L 60.125,141.125 L 60.125,142.96875 L 66.40625,142.96875 L 66.40625,144.34375 L 58.3125,144.34375 L 58.3125,136.90625 z M 69.4375,136.90625 L 71.25,136.90625 L 71.25,142.96875 L 77.125,142.96875 L 77.125,144.34375 L 69.4375,144.34375 L 69.4375,136.90625 z M 79.28125,136.90625 L 87.3125,136.90625 L 87.3125,138.21875 L 81.125,138.21875 L 81.125,139.84375 L 84.71875,139.84375 L 84.71875,141.125 L 81.125,141.125 L 81.125,142.96875 L 87.375,142.96875 L 87.375,144.34375 L 79.28125,144.34375 L 79.28125,136.90625 z M 89,136.90625 L 91.46875,136.90625 L 94.125,139.6875 L 96.84375,136.90625 L 98.96875,136.90625 L 94.90625,140.96875 L 94.90625,144.34375 L 93.09375,144.34375 L 93.09375,141 L 89,136.90625 z M 122.75,136.90625 L 124.46875,136.90625 L 128.96875,144.34375 L 126.9375,144.34375 L 126,142.71875 L 121.0625,142.71875 L 120.125,144.34375 L 118.3125,144.34375 L 122.75,136.90625 z M 130.84375,136.90625 L 137.5625,136.90625 C 138.7615,136.90625 139.3125,137.28475 139.3125,138.34375 L 139.3125,139.25 C 139.3125,139.937 138.84325,140.36 138.03125,140.5 C 138.87825,140.641 139.375,141.1795 139.375,141.9375 L 139.375,142.90625 C 139.375,143.89525 138.5985,144.34375 137.0625,144.34375 L 130.84375,144.34375 L 130.84375,136.90625 z M 132.65625,138.125 L 132.65625,139.875 L 136.71875,139.875 C 137.26575,139.875 137.53125,139.78575 137.53125,139.34375 L 137.53125,138.65625 C 137.53124,138.21525 137.28175,138.125 136.71875,138.125 L 132.65625,138.125 z M 37.125,138.1875 L 37.125,140.25 L 41.28125,140.25 C 41.828252,140.25 42.09375,140.15225 42.09375,139.65625 L 42.09375,138.78125 C 42.093749,138.28525 41.82825,138.1875 41.28125,138.1875 L 37.125,138.1875 z M 123.5,138.25 L 121.84375,141.34375 L 125.25,141.34375 L 123.5,138.25 z M 13.28125,140.40625 L 13.28125,142.71875 L 18.125,142.71875 C 18.847,142.71876 19.15625,142.57825 19.15625,141.90625 L 19.15625,141.21875 C 19.156249,140.54676 18.847,140.40625 18.125,140.40625 L 13.28125,140.40625 z M 132.65625,141.125 L 132.65625,143.03125 L 136.71875,143.03125 C 137.33675,143.03125 137.59375,142.89075 137.59375,142.34375 L 137.59375,141.78125 C 137.59375,141.23425 137.33675,141.125 136.71875,141.125 L 132.65625,141.125 z"
           transform="translate(201.262,274.676)"
           id="path18"
           style="fill:#005699;fill-opacity:1" />
      </g>
      <g
         transform="translate(-201.262,-274.676)"
         id="g20"
         style="fill:#ffffff;fill-rule:evenodd;stroke-width:0;stroke-linecap:butt;stroke-linejoin:miter;stroke-miterlimit:2.61310005" />
      <g
         transform="translate(-201.262,-274.676)"
         id="g24"
         style="fill:#ffffff;fill-rule:evenodd;stroke-width:0;stroke-linecap:butt;stroke-linejoin:miter;stroke-miterlimit:2.61310005" />
      <g
         transform="translate(-201.262,-274.676)"
         id="g32"
         style="fill:#ffffff;fill-rule:evenodd;stroke-width:0;stroke-linecap:butt;stroke-linejoin:miter;stroke-miterlimit:2.61310005" />
      <g
         transform="translate(-201.262,-274.676)"
         id="g36"
         style="fill:#ffffff;fill-rule:evenodd;stroke-width:0;stroke-linecap:butt;stroke-linejoin:miter;stroke-miterlimit:2.61310005" />
      <g
         transform="translate(-201.262,-274.676)"
         id="g40"
         style="fill:#ffffff;fill-rule:evenodd;stroke-width:0;stroke-linecap:butt;stroke-linejoin:miter;stroke-miterlimit:2.61310005" />
      <g
         transform="translate(-201.262,-274.676)"
         id="g44"
         style="fill:#ffffff;fill-rule:evenodd;stroke-width:0;stroke-linecap:butt;stroke-linejoin:miter;stroke-miterlimit:2.61310005" />
      <g
         transform="translate(-201.262,-274.676)"
         id="g48"
         style="fill:#ffffff;fill-rule:evenodd;stroke-width:0;stroke-linecap:butt;stroke-linejoin:miter;stroke-miterlimit:2.61310005" />
      <g
         transform="translate(-201.262,-274.676)"
         id="g52"
         style="fill:#ffffff;fill-rule:evenodd;stroke-width:0;stroke-linecap:butt;stroke-linejoin:miter;stroke-miterlimit:2.61310005" />
      <g
         transform="translate(-201.262,-274.676)"
         id="g56"
         style="fill:#ffffff;fill-rule:evenodd;stroke-width:0;stroke-linecap:butt;stroke-linejoin:miter;stroke-miterlimit:2.61310005" />
      <g
         transform="translate(-201.262,-274.676)"
         id="g60"
         style="fill:#ffffff;fill-rule:evenodd;stroke-width:0;stroke-linecap:butt;stroke-linejoin:miter;stroke-miterlimit:2.61310005" />
      <g
         transform="translate(-201.262,-274.676)"
         id="g64"
         style="fill:#005699;fill-opacity:1;fill-rule:evenodd;stroke-width:0;stroke-linecap:butt;stroke-linejoin:miter;stroke-miterlimit:2.61310005">
        <path
           d="M 316.406,356.586 L 322.102,355.57 C 320.992,355.164 319.734,354.895 318.457,354.801 C 318.461,354.801 318.465,354.797 318.469,354.797 C 318.457,354.797 318.449,354.801 318.441,354.801 C 315.457,354.59 312.34,355.359 310.594,357.68 C 310.52,360.539 309.965,363.375 310.184,366.258 L 315.898,365.238 C 315.684,362.379 316.07,359.57 316.383,356.687 C 316.391,356.652 316.398,356.617 316.406,356.586 z"
           id="path66"
           style="fill:#005699;fill-opacity:1" />
      </g>
      <g
         transform="translate(-201.262,-274.676)"
         id="g68"
         style="fill:#005699;fill-opacity:1;fill-rule:evenodd;stroke-width:0;stroke-linecap:butt;stroke-linejoin:miter;stroke-miterlimit:2.61310005">
        <path
           d="M 300.074,356.32 L 305.773,355.305 C 304.66,354.898 303.406,354.629 302.125,354.535 C 302.129,354.535 302.133,354.531 302.137,354.531 C 302.129,354.531 302.121,354.531 302.109,354.535 C 299.125,354.324 296.008,355.094 294.266,357.414 C 294.191,360.273 293.633,363.105 293.852,365.988 L 299.57,364.973 C 299.352,362.113 299.738,359.301 300.055,356.418 C 300.059,356.383 300.066,356.352 300.074,356.32 z"
           id="path70"
           style="fill:#005699;fill-opacity:1" />
      </g>
      <g
         transform="translate(-201.262,-274.676)"
         id="g72"
         style="fill:#005699;fill-opacity:1;fill-rule:evenodd;stroke-width:0;stroke-linecap:butt;stroke-linejoin:miter;stroke-miterlimit:2.61310005">
        <path
           d="M 283.961,356.441 L 289.66,355.426 C 288.547,355.02 287.293,354.75 286.016,354.656 C 286.02,354.656 286.023,354.652 286.027,354.652 C 286.016,354.652 286.008,354.656 285.996,354.656 C 283.012,354.445 279.895,355.215 278.152,357.535 C 278.078,360.395 277.523,363.227 277.738,366.109 L 283.457,365.094 C 283.238,362.234 283.629,359.422 283.941,356.539 C 283.949,356.504 283.957,356.473 283.961,356.441 z"
           id="path74"
           style="fill:#005699;fill-opacity:1" />
      </g>
      <g
         transform="translate(-201.262,-274.676)"
         id="g76"
         style="fill:#005699;fill-opacity:1;fill-rule:evenodd;stroke-width:0;stroke-linecap:butt;stroke-linejoin:miter;stroke-miterlimit:2.61310005">
        <path
           d="M 267.273,356.441 L 272.973,355.426 C 271.859,355.02 270.605,354.75 269.328,354.656 C 269.332,354.656 269.336,354.652 269.34,354.652 C 269.328,354.652 269.32,354.656 269.313,354.656 C 266.324,354.445 263.207,355.215 261.465,357.535 C 261.391,360.395 260.836,363.227 261.051,366.109 L 266.77,365.094 C 266.551,362.234 266.938,359.422 267.254,356.539 C 267.258,356.504 267.27,356.473 267.273,356.441 z"
           id="path78"
           style="fill:#005699;fill-opacity:1" />
      </g>
      <g
         transform="translate(-201.262,-274.676)"
         id="g80"
         style="fill:#005699;fill-opacity:1;fill-rule:evenodd;stroke-width:0;stroke-linecap:butt;stroke-linejoin:miter;stroke-miterlimit:2.61310005">
        <path
           d="M 250.922,356.695 L 256.621,355.68 C 255.512,355.273 254.254,355.004 252.977,354.914 C 252.98,354.91 252.984,354.91 252.988,354.906 C 252.977,354.906 252.969,354.91 252.961,354.91 C 249.973,354.703 246.855,355.469 245.113,357.789 C 245.039,360.648 244.484,363.484 244.699,366.367 L 250.418,365.348 C 250.199,362.488 250.59,359.68 250.902,356.797 C 250.91,356.762 250.918,356.73 250.922,356.695 z"
           id="path82"
           style="fill:#005699;fill-opacity:1" />
      </g>
      <g
         transform="translate(-201.262,-274.676)"
         id="g84"
         style="fill:#005699;fill-opacity:1;fill-rule:evenodd;stroke-width:0;stroke-linecap:butt;stroke-linejoin:miter;stroke-miterlimit:2.61310005">
        <path
           d="M 234.594,356.43 L 240.293,355.414 C 239.18,355.008 237.926,354.738 236.645,354.645 C 236.648,354.645 236.652,354.641 236.656,354.641 C 236.648,354.641 236.641,354.645 236.629,354.645 C 233.645,354.434 230.527,355.203 228.781,357.523 C 228.711,360.383 228.152,363.215 228.371,366.102 L 234.09,365.082 C 233.871,362.223 234.258,359.414 234.574,356.531 C 234.578,356.496 234.586,356.461 234.594,356.43 z"
           id="path86"
           style="fill:#005699;fill-opacity:1" />
      </g>
      <g
         transform="translate(-201.262,-274.676)"
         id="g88"
         style="fill:#005699;fill-opacity:1;fill-rule:evenodd;stroke-width:0;stroke-linecap:butt;stroke-linejoin:miter;stroke-miterlimit:2.61310005">
        <path
           d="M 218.48,356.551 L 224.18,355.535 C 223.066,355.129 221.813,354.859 220.531,354.766 C 220.535,354.766 220.543,354.762 220.547,354.762 C 220.535,354.762 220.527,354.766 220.516,354.766 C 217.531,354.555 214.414,355.324 212.672,357.645 C 212.598,360.504 212.039,363.336 212.258,366.223 L 217.977,365.203 C 217.758,362.344 218.145,359.535 218.461,356.652 C 218.465,356.617 218.473,356.582 218.48,356.551 z"
           id="path90"
           style="fill:#005699;fill-opacity:1" />
      </g>
      <g
         transform="translate(-201.262,-274.676)"
         id="g92"
         style="fill:#2a8c93;fill-opacity:1;fill-rule:evenodd;stroke-width:0;stroke-linecap:butt;stroke-linejoin:miter;stroke-miterlimit:2.61310005">
        <path
           d="M 211.707,375.715 C 246.488,372.297 282.484,369.859 316.02,382.598 C 331.93,388.633 344.688,398.656 358.746,409.062 C 372.734,419.414 375.027,421.996 391.18,421.996 C 375.027,424.051 369.008,420.773 355.023,410.422 C 340.961,400.016 328.223,390.012 312.293,383.953 C 278.793,371.215 242.762,373.641 208,377.07 L 211.707,375.715 z"
           id="path94"
           style="fill:#2a8c93;fill-opacity:1" />
      </g>
      <g
         transform="translate(-201.262,-274.676)"
         id="g96"
         style="fill:#aa273d;fill-opacity:1;fill-rule:evenodd;stroke-width:0;stroke-linecap:butt;stroke-linejoin:miter;stroke-miterlimit:2.61310005">
        <path
           d="M 249.645,318.543 L 260.145,313.883 L 270.242,319.371 L 270.352,321.223 L 273.488,319.203 L 273.691,316.949 L 264.074,311.496 L 249.645,318.543 z"
           id="path98"
           style="fill:#aa273d;fill-opacity:1" />
      </g>
      <g
         transform="translate(-201.262,-274.676)"
         id="g100"
         style="opacity:1;fill:#005699;fill-opacity:1;fill-rule:evenodd;stroke-width:0;stroke-linecap:butt;stroke-linejoin:miter;stroke-miterlimit:2.61310005">
        <path
           d="M 369.445,356.469 C 369.445,360.27 369.445,364.066 369.445,367.867 C 369.445,368.57 368.867,369.187 368.125,369.187 C 367.383,369.187 366.805,368.57 366.805,367.867 C 366.805,364.066 366.805,360.27 366.805,356.469 C 366.805,355.727 367.383,355.148 368.125,355.148 C 368.867,355.148 369.445,355.727 369.445,356.469 z"
           id="path102"
           style="fill:#005699;fill-opacity:1" />
      </g>
      <g
         transform="translate(-201.262,-274.676)"
         id="g104"
         style="opacity:1;fill:#005699;fill-opacity:1;fill-rule:evenodd;stroke-width:0;stroke-linecap:butt;stroke-linejoin:miter;stroke-miterlimit:2.61310005">
        <path
           d="M 364.82,356.414 C 364.82,360.215 364.82,364.012 364.82,367.812 C 364.82,368.516 364.242,369.133 363.5,369.133 C 362.758,369.133 362.18,368.516 362.18,367.812 C 362.18,364.012 362.18,360.215 362.18,356.414 C 362.18,355.672 362.758,355.094 363.5,355.094 C 364.242,355.094 364.82,355.672 364.82,356.414 z"
           id="path106"
           style="fill:#005699;fill-opacity:1" />
      </g>
      <g
         transform="translate(-201.262,-274.676)"
         id="g108"
         style="opacity:1;fill:#005699;fill-opacity:1;fill-rule:evenodd;stroke-width:0;stroke-linecap:butt;stroke-linejoin:miter;stroke-miterlimit:2.61310005">
        <path
           d="M 359.977,356.441 C 359.977,360.242 359.977,364.039 359.977,367.84 C 359.977,368.543 359.398,369.16 358.652,369.16 C 357.91,369.16 357.332,368.543 357.332,367.84 C 357.332,364.039 357.332,360.242 357.332,356.441 C 357.332,355.699 357.91,355.121 358.652,355.121 C 359.398,355.121 359.977,355.699 359.977,356.441 z"
           id="path110"
           style="fill:#005699;fill-opacity:1" />
      </g>
      <g
         transform="translate(-201.262,-274.676)"
         id="g112"
         style="fill:#2a8c93;fill-opacity:1;fill-rule:evenodd;stroke-width:0;stroke-linecap:butt;stroke-linejoin:miter;stroke-miterlimit:2.61310005">
        <path
           d="M 374.219,415.094 L 374.238,353.34 L 372.84,348.934 L 371.441,353.34 L 371.457,413.477 L 374.219,415.094 z"
           id="path114"
           style="fill:#2a8c93;fill-opacity:1" />
      </g>
      <g
         transform="translate(-201.262,-274.676)"
         id="g116"
         style="fill:#2a8c93;fill-opacity:1;fill-rule:evenodd;stroke-width:0;stroke-linecap:butt;stroke-linejoin:miter;stroke-miterlimit:2.61310005">
        <path
           d="M 355.453,402.906 L 355.453,353.34 L 354.57,349.152 L 353.691,353.34 L 353.691,400.852 L 355.453,402.906 z"
           id="path118"
           style="fill:#2a8c93;fill-opacity:1" />
      </g>
      <g
         transform="translate(-201.262,-274.676)"
         id="g120"
         style="fill:#2a8c93;fill-opacity:1;fill-rule:evenodd;stroke-width:0;stroke-linecap:butt;stroke-linejoin:miter;stroke-miterlimit:2.61310005">
        <path
           d="M 370.258,352.539 L 363.289,335.609 L 357.563,348.383 L 357.563,347.281 L 363.621,331.945 L 370.918,349.457 L 370.258,352.539 z"
           id="path122"
           style="fill:#2a8c93;fill-opacity:1" />
      </g>
      <g
         transform="translate(-201.262,-274.676)"
         id="g124"
         style="fill:#aa273d;fill-opacity:1;fill-rule:evenodd;stroke-width:0;stroke-linecap:butt;stroke-linejoin:miter;stroke-miterlimit:2.61310005">
        <path
           d="M 215.648,335.031 C 215.648,335.031 233.973,324.133 251.152,322.687 C 251.152,322.687 275.559,318.273 300.176,330.797 C 300.176,330.797 314.41,337.379 323.297,347.602 L 331.859,347.602 L 331.859,385.707 L 328.543,383.566 L 328.543,350.602 L 320.727,350.602 C 320.727,350.602 304.391,333.734 281.23,327.48 C 247.941,318.488 216.754,334.449 215.648,335.031 z"
           id="path126"
           style="fill:#aa273d;fill-opacity:1" />
      </g>
    </g>
  </g>
</svg>
