<?xml version="1.0" encoding="UTF-8" standalone="no"?>
<!-- Created with Inkscape (http://www.inkscape.org/) -->
<svg
   xmlns:svg="http://www.w3.org/2000/svg"
   xmlns="http://www.w3.org/2000/svg"
   version="1.0"
   width="64"
   height="33"
   id="svg2784">
  <defs
     id="defs2786" />
  <g
     transform="translate(-362.22457,-548.90425)"
     id="layer1">
    <g
       transform="matrix(1.05744,0,0,1.05744,363.28403,549.78713)"
       id="g2795">
	<path
   d="M 14.592,23.114 C 14.884,23.128 15.01,23.277 15.01,23.277 C 15.01,23.277 14.952,23.128 14.961,23.533 C 14.97,23.938 14.511,23.753 13.591,23.359 C 11.947,22.656 10.991,20.634 10.581,19.751 C 10.581,19.751 10.146,18.997 9.523,18.459 C 9.165,18.149 8.503,17.975 8.503,17.975 C 8.503,17.975 7.987,17.723 7.195,17.445 C 6.441,17.181 3.702,17.336 3.702,17.336 L 4.599,17.04 C 4.599,17.04 3.643,16.517 2.911,16.203 C 2.578,16.061 4.51,15.798 4.51,15.798 L 4.482,15.131 C 4.482,15.131 5.086,15.459 5.799,15.586 C 6.514,15.713 7.141,16.12 7.615,15.725 C 8.09,15.332 8.442,14.805 7.97,14.353 C 7.498,13.901 6.972,13.549 6.103,13.468 C 5.234,13.387 2.173,13.615 2.173,13.615 L 0.415,12.529 C 0.415,12.529 0.695,12.615 1.216,12.377 C 1.737,12.139 2.19,11.666 2.19,11.666 C 2.19,11.666 2.322,11.543 1.929,11.068 C 1.533,10.593 0.211,9.547 0.211,9.547 L 0.901,9.596 C 0.901,9.596 0.653,9.332 0.36,8.911 C 0.069,8.491 0,8.257 0,8.257 L 0.93,8.828 C 0.93,8.828 1.48,9.257 1.341,8.791 L 1.203,8.324 C 1.203,8.324 2.118,8.561 2.979,8.898 C 3.838,9.236 4.882,10.195 5.358,9.801 C 5.833,9.407 6.473,8.711 5.53,7.807 C 4.586,6.902 4.028,6.729 3.347,6.424 C 2.664,6.118 2.564,6.064 1.905,5.835 C 1.246,5.607 1.117,4.885 1.117,4.885 C 1.117,4.885 2.115,5.689 2.311,5.208 C 2.506,4.727 2.392,4.339 2.099,3.919 C 1.806,3.498 1.59,3.055 1.59,3.055 C 1.59,3.055 1.612,3.133 2.17,3.306 C 2.73,3.479 2.69,3.913 2.73,3.479 C 2.771,3.044 2.555,2.601 2.555,2.601 C 2.555,2.601 2.925,2.998 3.475,3.428 C 4.025,3.857 4.51,4.642 4.853,4.372 C 5.196,4.102 5.707,4.12 5.276,3.233 C 4.844,2.346 4.656,1.135 4.656,1.135 L 5.182,1.486 L 4.993,0.274 C 4.993,0.274 5.25,0.283 5.62,0.68 L 5.992,1.078 L 6.211,0.675 C 6.211,0.675 6.829,1.337 6.944,1.726 C 7.059,2.114 7.754,2.754 7.772,2.242 C 7.79,1.729 7.621,1.442 7.621,1.442 L 8.069,1.816 C 8.069,1.816 8.403,1.802 8.297,1.157 C 8.191,0.512 8.208,0 8.208,0 L 9.235,1.472 L 9.307,0.859 C 9.307,0.859 9.779,1.311 9.541,2.226 C 9.307,3.14 9.216,4.266 9.011,5.002 C 8.807,5.74 9.087,7.262 9.695,6.744 C 10.303,6.227 10.553,5.645 10.914,4.863 C 11.274,4.08 12.192,3.471 12.192,3.471 C 12.192,3.471 11.746,4.532 11.987,4.207 C 12.229,3.882 12.353,4.015 12.751,3.644 C 13.149,3.273 14.533,2.526 14.533,2.526 C 14.533,2.526 14.058,2.919 13.838,3.322 C 13.62,3.725 13.717,4.626 14.015,4.2 C 14.311,3.774 14.7,3.659 14.7,3.659 C 14.7,3.659 14.385,4.598 13.956,5.147 C 13.527,5.696 12.586,6.228 13.058,6.68 C 13.53,7.133 13.831,7.297 14.221,7.182 C 14.609,7.067 15.021,7.03 15.021,7.03 L 14.7,7.378 L 15.577,7.203 L 14.307,8.339 L 15.012,8.722 C 15.012,8.722 13.909,8.71 13.287,8.894 C 12.665,9.077 12.158,9.65 11.45,10.113 C 10.741,10.576 9.799,13.39 11.083,12.588 C 12.367,11.786 13.724,10.043 13.724,10.043 C 13.724,10.043 13.484,10.963 13.95,10.825 C 14.416,10.688 15.48,10.02 15.48,10.02 C 15.48,10.02 15.291,10.682 14.707,11.439 C 14.337,11.92 13.874,12.828 14.14,12.581 C 14.405,12.333 15.558,12.28 15.558,12.28 C 15.558,12.28 14.95,12.798 14.241,13.261 C 13.533,13.724 12.35,14.58 12.131,14.983 C 11.911,15.386 12.59,16.538 13.463,15.773 C 14.335,15.008 15.076,14.367 15.217,13.987 C 15.359,13.607 15.966,13.089 15.966,13.089 L 16.04,13.912 L 17.252,13.723 L 16.532,15.288 C 16.532,15.288 16.498,15.56 17.011,15.485 C 17.578,15.401 17.602,15.479 17.602,15.479 C 17.602,15.479 16.752,16.322 15.873,16.497 C 14.995,16.672 10.757,17.595 10.956,19.59 C 10.996,20 12.067,22.592 14.208,23.071 L 14.592,23.114 z"
   id="path2797"
   style="fill:#31875a" />

	
		<line
   id="line2799"
   y2="23.534"
   x2="57.877998"
   y1="23.534"
   x1="16.068001"
   style="fill:none;stroke:#31875a;stroke-width:0.60900003;stroke-linecap:round" />

	<path
   d="M 16.372,26.222 C 16.372,27.056 16.411,27.742 16.421,27.894 C 16.431,28.139 16.49,28.257 16.666,28.257 L 16.794,28.257 C 16.833,28.257 16.833,28.277 16.833,28.301 L 16.833,28.414 C 16.833,28.443 16.833,28.453 16.794,28.453 C 16.745,28.453 16.45,28.438 16.264,28.438 C 16.137,28.438 15.803,28.453 15.754,28.453 C 15.735,28.453 15.725,28.443 15.725,28.409 L 15.725,28.286 C 15.725,28.277 15.736,28.257 15.754,28.257 L 15.921,28.257 C 16.048,28.257 16.117,28.149 16.142,27.85 C 16.146,27.762 16.176,27.075 16.176,26.291 L 16.176,25.668 C 16.176,25.374 16.009,25.148 15.793,25.148 L 15.636,25.148 C 15.617,25.143 15.607,25.134 15.607,25.114 L 15.607,24.982 C 15.607,24.962 15.618,24.952 15.636,24.952 C 15.661,24.952 15.7,24.957 15.788,24.962 C 15.877,24.967 16.009,24.967 16.225,24.967 C 16.308,24.967 16.382,24.962 16.441,24.957 C 16.504,24.957 16.548,24.952 16.579,24.952 C 16.638,24.952 16.667,24.967 16.697,24.996 C 16.746,25.045 17.707,26.251 17.804,26.389 C 17.872,26.467 18.637,27.419 18.716,27.517 L 18.736,27.517 L 18.736,27.007 C 18.736,26.575 18.736,26.33 18.726,26.085 C 18.716,25.898 18.697,25.418 18.672,25.335 C 18.637,25.217 18.53,25.148 18.412,25.148 L 18.255,25.148 C 18.226,25.148 18.226,25.129 18.226,25.104 L 18.226,24.991 C 18.226,24.962 18.226,24.952 18.265,24.952 C 18.325,24.952 18.48,24.967 18.814,24.967 C 19.108,24.967 19.226,24.952 19.286,24.952 C 19.325,24.952 19.335,24.972 19.335,24.986 L 19.335,25.099 C 19.335,25.129 19.325,25.148 19.305,25.148 L 19.168,25.148 C 19.07,25.148 19.021,25.227 19.006,25.408 C 18.982,25.742 18.933,26.565 18.933,27.065 L 18.933,28.36 C 18.933,28.429 18.933,28.497 18.874,28.497 C 18.805,28.497 18.746,28.458 18.707,28.419 C 18.668,28.37 18.403,28.066 18.099,27.703 C 17.756,27.281 17.373,26.82 17.314,26.742 C 17.247,26.673 16.461,25.692 16.403,25.624 L 16.374,25.624 L 16.374,26.222 L 16.372,26.222 z"
   id="path2801"
   style="fill:#31875a" />

	<path
   d="M 20.818,28.198 C 20.711,28.316 20.583,28.399 20.391,28.463 C 20.279,28.497 20.175,28.497 20.078,28.497 C 19.897,28.497 19.74,28.35 19.74,28.076 C 19.74,27.85 19.838,27.629 20.191,27.473 C 20.495,27.325 20.68,27.247 20.789,27.169 L 20.789,26.914 C 20.779,26.815 20.768,26.698 20.711,26.639 C 20.662,26.585 20.573,26.565 20.465,26.565 C 20.377,26.565 20.259,26.595 20.181,26.654 C 20.113,26.703 20.161,26.776 20.161,26.894 C 20.161,27.071 20.073,27.178 19.867,27.178 C 19.779,27.178 19.701,27.12 19.701,27.012 C 19.701,26.874 19.779,26.717 19.926,26.61 C 20.132,26.453 20.398,26.335 20.72,26.335 C 20.995,26.335 21.083,26.394 21.171,26.472 C 21.279,26.57 21.289,26.708 21.289,26.84 L 21.299,27.615 L 21.299,27.85 C 21.299,28.115 21.338,28.193 21.426,28.193 C 21.495,28.193 21.565,28.154 21.583,28.115 C 21.603,28.086 21.613,28.086 21.632,28.095 L 21.692,28.135 C 21.712,28.144 21.721,28.164 21.702,28.213 C 21.653,28.301 21.535,28.497 21.251,28.497 C 21.065,28.497 20.908,28.409 20.839,28.198 L 20.818,28.198 L 20.818,28.198 z M 20.789,27.35 C 20.573,27.487 20.25,27.571 20.25,27.929 C 20.25,28.13 20.357,28.228 20.475,28.228 C 20.614,28.218 20.789,28.081 20.789,27.992 L 20.789,27.35 z"
   id="path2803"
   style="fill:#31875a" />

	<path
   d="M 21.916,26.664 C 21.877,26.664 21.848,26.644 21.848,26.595 C 21.848,26.556 21.877,26.527 21.942,26.502 C 22.079,26.453 22.505,26.09 22.613,25.884 C 22.633,25.845 22.662,25.835 22.692,25.835 C 22.731,25.835 22.751,25.865 22.751,25.904 L 22.731,26.389 L 23.377,26.389 C 23.407,26.389 23.416,26.409 23.412,26.429 L 23.363,26.635 C 23.358,26.654 23.342,26.664 23.313,26.664 L 22.72,26.664 C 22.71,26.87 22.705,27.105 22.705,27.321 L 22.705,27.762 C 22.705,28.145 22.867,28.223 22.965,28.223 C 23.073,28.223 23.182,28.199 23.25,28.164 C 23.284,28.15 23.299,28.15 23.31,28.174 L 23.338,28.233 C 23.349,28.262 23.338,28.282 23.318,28.302 C 23.25,28.351 23.044,28.498 22.701,28.498 C 22.406,28.498 22.186,28.262 22.186,28.057 C 22.186,27.88 22.2,27.488 22.2,27.301 L 22.2,26.664 L 21.916,26.664 z"
   id="path2805"
   style="fill:#31875a" />

	<path
   d="M 23.926,27.041 C 23.926,26.894 23.897,26.796 23.671,26.737 C 23.627,26.727 23.622,26.713 23.622,26.693 L 23.622,26.639 C 23.622,26.619 23.632,26.61 23.657,26.6 C 23.724,26.57 24.211,26.399 24.294,26.365 C 24.343,26.345 24.382,26.335 24.412,26.335 C 24.44,26.335 24.456,26.355 24.451,26.394 C 24.44,26.472 24.44,26.786 24.44,27.193 L 24.44,27.723 C 24.44,27.909 24.44,28.086 24.451,28.144 C 24.461,28.233 24.479,28.272 24.529,28.272 L 24.725,28.272 C 24.764,28.272 24.774,28.282 24.774,28.306 L 24.774,28.404 C 24.774,28.434 24.764,28.453 24.735,28.453 C 24.696,28.453 24.47,28.439 24.141,28.439 C 23.858,28.439 23.67,28.453 23.612,28.453 C 23.588,28.453 23.573,28.443 23.573,28.404 L 23.573,28.311 C 23.573,28.282 23.593,28.272 23.622,28.272 L 23.838,28.272 C 23.887,28.272 23.912,28.252 23.917,28.174 C 23.921,28.027 23.926,27.87 23.926,27.733 L 23.926,27.041 z M 24.093,25.83 C 23.941,25.83 23.794,25.722 23.794,25.555 C 23.794,25.413 23.926,25.281 24.122,25.281 C 24.319,25.281 24.412,25.423 24.412,25.536 C 24.412,25.678 24.313,25.83 24.093,25.83"
   id="path2807"
   style="fill:#31875a" />

	<path
   d="M 26.897,26.625 C 27.126,26.855 27.235,27.11 27.235,27.4 C 27.235,27.674 27.118,27.939 26.931,28.145 C 26.73,28.371 26.436,28.498 26.107,28.498 C 25.799,28.498 25.534,28.41 25.313,28.145 C 25.097,27.89 25.048,27.684 25.048,27.385 C 25.048,27.15 25.165,26.806 25.459,26.571 C 25.7,26.375 25.954,26.336 26.155,26.336 C 26.485,26.335 26.73,26.462 26.897,26.625 M 26.638,27.384 C 26.638,26.845 26.354,26.531 26.127,26.531 C 26,26.531 25.901,26.57 25.818,26.663 C 25.666,26.835 25.607,27.041 25.607,27.399 C 25.607,27.683 25.627,27.87 25.759,28.08 C 25.843,28.213 25.95,28.291 26.147,28.291 C 26.471,28.292 26.638,27.884 26.638,27.384"
   id="path2809"
   style="fill:#31875a" />

	<path
   d="M 28.216,26.375 C 28.255,26.355 28.285,26.336 28.314,26.336 C 28.343,26.336 28.363,26.355 28.374,26.395 L 28.413,26.65 L 28.441,26.65 C 28.501,26.581 28.589,26.502 28.687,26.453 C 28.804,26.385 28.932,26.336 29.08,26.336 C 29.247,26.336 29.403,26.365 29.512,26.453 C 29.727,26.61 29.781,26.758 29.781,26.959 L 29.781,27.665 C 29.781,27.822 29.776,28.037 29.776,28.135 C 29.776,28.243 29.836,28.273 29.894,28.273 L 30.031,28.273 C 30.075,28.273 30.091,28.283 30.091,28.307 L 30.091,28.42 C 30.091,28.444 30.081,28.454 30.052,28.454 C 30.013,28.454 29.865,28.439 29.522,28.439 C 29.228,28.439 29.071,28.454 29.043,28.454 C 29.013,28.454 29.004,28.434 29.004,28.395 L 29.004,28.312 C 29.004,28.283 29.013,28.273 29.062,28.273 L 29.16,28.273 C 29.2,28.273 29.239,28.243 29.25,28.155 C 29.265,28.027 29.269,27.89 29.269,27.694 L 29.269,27.13 C 29.269,26.934 29.259,26.807 29.142,26.709 C 29.044,26.62 28.956,26.62 28.848,26.62 C 28.769,26.62 28.652,26.64 28.534,26.748 C 28.455,26.826 28.431,26.963 28.431,27.096 L 28.431,28.106 C 28.431,28.214 28.454,28.273 28.524,28.273 L 28.612,28.273 C 28.652,28.273 28.661,28.283 28.661,28.317 L 28.661,28.405 C 28.661,28.434 28.652,28.454 28.623,28.454 C 28.594,28.454 28.455,28.439 28.161,28.439 C 27.857,28.439 27.7,28.454 27.672,28.454 C 27.651,28.454 27.642,28.434 27.642,28.405 L 27.642,28.312 C 27.642,28.283 27.652,28.273 27.691,28.273 L 27.79,28.273 C 27.849,28.273 27.918,28.253 27.918,28.175 L 27.918,27.07 C 27.918,26.923 27.829,26.845 27.712,26.786 L 27.673,26.766 C 27.643,26.757 27.634,26.737 27.634,26.717 L 27.634,26.678 C 27.634,26.659 27.653,26.639 27.683,26.629 L 28.216,26.375 z"
   id="path2811"
   style="fill:#31875a" />

	<path
   d="M 31.524,28.198 C 31.418,28.316 31.289,28.399 31.098,28.463 C 30.985,28.497 30.882,28.497 30.784,28.497 C 30.603,28.497 30.446,28.35 30.446,28.076 C 30.446,27.85 30.545,27.629 30.897,27.473 C 31.201,27.325 31.387,27.247 31.495,27.169 L 31.495,26.914 C 31.485,26.815 31.475,26.698 31.418,26.639 C 31.368,26.585 31.279,26.565 31.172,26.565 C 31.084,26.565 30.966,26.595 30.888,26.654 C 30.819,26.703 30.867,26.776 30.867,26.894 C 30.867,27.071 30.779,27.178 30.573,27.178 C 30.485,27.178 30.406,27.12 30.406,27.012 C 30.406,26.874 30.485,26.717 30.633,26.61 C 30.839,26.453 31.104,26.335 31.427,26.335 C 31.701,26.335 31.789,26.394 31.878,26.472 C 31.985,26.57 31.995,26.708 31.995,26.84 L 32.006,27.615 L 32.006,27.85 C 32.006,28.115 32.045,28.193 32.133,28.193 C 32.201,28.193 32.271,28.154 32.289,28.115 C 32.31,28.086 32.319,28.086 32.339,28.095 L 32.398,28.135 C 32.419,28.144 32.428,28.164 32.408,28.213 C 32.359,28.301 32.241,28.497 31.957,28.497 C 31.771,28.497 31.614,28.409 31.546,28.198 L 31.524,28.198 L 31.524,28.198 z M 31.495,27.35 C 31.279,27.487 30.956,27.571 30.956,27.929 C 30.956,28.13 31.063,28.228 31.182,28.228 C 31.32,28.218 31.495,28.081 31.495,27.992 L 31.495,27.35 L 31.495,27.35 z"
   id="path2813"
   style="fill:#31875a" />

	<path
   d="M 32.883,26.561 C 32.883,26.218 32.873,25.796 32.862,25.669 C 32.853,25.502 32.769,25.424 32.612,25.374 L 32.514,25.345 C 32.485,25.335 32.485,25.325 32.485,25.306 L 32.485,25.247 C 32.485,25.237 32.495,25.217 32.524,25.208 C 32.72,25.149 33.103,25.021 33.259,24.923 C 33.318,24.904 33.348,24.894 33.366,24.894 C 33.396,24.894 33.416,24.914 33.416,24.982 C 33.406,25.247 33.396,26.267 33.396,26.536 L 33.396,27.243 C 33.396,27.468 33.396,27.968 33.406,28.115 C 33.416,28.204 33.426,28.272 33.533,28.272 L 33.72,28.272 C 33.769,28.272 33.779,28.282 33.779,28.317 L 33.779,28.405 C 33.779,28.434 33.769,28.454 33.751,28.454 C 33.712,28.454 33.495,28.439 33.152,28.439 C 32.779,28.439 32.584,28.454 32.545,28.454 C 32.515,28.454 32.506,28.434 32.506,28.405 L 32.506,28.311 C 32.506,28.282 32.515,28.272 32.573,28.272 L 32.76,28.272 C 32.809,28.272 32.883,28.233 32.883,28.096 L 32.883,26.752 L 32.883,26.561 L 32.883,26.561 z"
   id="path2815"
   style="fill:#31875a" />

	<path
   d="M 38.104,27.428 C 38.114,27.438 38.114,27.448 38.114,27.477 C 38.093,27.506 37.898,28.32 37.869,28.453 C 37.741,28.448 36.329,28.438 35.829,28.438 C 35.387,28.438 35.211,28.453 35.152,28.453 C 35.113,28.453 35.113,28.443 35.113,28.409 L 35.113,28.296 C 35.113,28.266 35.113,28.257 35.141,28.257 L 35.337,28.257 C 35.514,28.257 35.543,28.188 35.543,28.124 C 35.543,28.036 35.564,26.81 35.564,26.516 L 35.564,26.241 C 35.564,25.928 35.553,25.408 35.543,25.324 C 35.534,25.197 35.514,25.148 35.386,25.148 L 35.181,25.148 C 35.152,25.148 35.141,25.119 35.141,25.104 L 35.141,24.991 C 35.141,24.962 35.152,24.952 35.181,24.952 C 35.231,24.952 35.407,24.966 35.858,24.966 C 36.387,24.966 36.593,24.952 36.632,24.952 C 36.671,24.952 36.681,24.971 36.681,24.996 L 36.681,25.109 C 36.681,25.128 36.671,25.148 36.632,25.148 L 36.367,25.148 C 36.22,25.148 36.2,25.197 36.2,25.329 C 36.2,25.398 36.18,26.133 36.18,26.477 L 36.18,26.898 C 36.18,26.987 36.18,28.046 36.2,28.257 L 36.475,28.257 C 36.749,28.257 37.103,28.257 37.298,28.232 C 37.572,28.193 37.886,27.605 37.955,27.418 C 37.975,27.399 37.984,27.389 38.014,27.399 L 38.104,27.428 z"
   id="path2817"
   style="fill:#31875a" />

	<path
   d="M 39.579,28.198 C 39.472,28.316 39.344,28.399 39.152,28.463 C 39.04,28.497 38.936,28.497 38.839,28.497 C 38.657,28.497 38.501,28.35 38.501,28.076 C 38.501,27.85 38.599,27.629 38.952,27.473 C 39.256,27.325 39.441,27.247 39.55,27.169 L 39.55,26.914 C 39.54,26.815 39.529,26.698 39.472,26.639 C 39.423,26.585 39.334,26.565 39.226,26.565 C 39.138,26.565 39.02,26.595 38.942,26.654 C 38.874,26.703 38.922,26.776 38.922,26.894 C 38.922,27.071 38.834,27.178 38.628,27.178 C 38.54,27.178 38.462,27.12 38.462,27.012 C 38.462,26.874 38.54,26.717 38.687,26.61 C 38.893,26.453 39.158,26.335 39.481,26.335 C 39.756,26.335 39.844,26.394 39.933,26.472 C 40.04,26.57 40.05,26.708 40.05,26.84 L 40.06,27.615 L 40.06,27.85 C 40.06,28.115 40.099,28.193 40.187,28.193 C 40.256,28.193 40.325,28.154 40.344,28.115 C 40.364,28.086 40.374,28.086 40.393,28.095 L 40.453,28.135 C 40.473,28.144 40.482,28.164 40.463,28.213 C 40.414,28.301 40.296,28.497 40.012,28.497 C 39.825,28.497 39.669,28.409 39.6,28.198 L 39.579,28.198 L 39.579,28.198 z M 39.55,27.35 C 39.334,27.487 39.011,27.571 39.011,27.929 C 39.011,28.13 39.118,28.228 39.236,28.228 C 39.375,28.218 39.55,28.081 39.55,27.992 L 39.55,27.35 z"
   id="path2819"
   style="fill:#31875a" />

	<path
   d="M 41.02,28.482 C 40.997,28.497 40.976,28.497 40.957,28.497 L 40.888,28.477 C 40.868,28.467 40.868,28.458 40.868,28.438 C 40.878,28.369 40.883,27.958 40.883,27.605 L 40.873,25.815 C 40.873,25.481 40.819,25.422 40.662,25.373 L 40.602,25.354 C 40.544,25.344 40.535,25.334 40.535,25.315 L 40.535,25.266 C 40.535,25.256 40.545,25.236 40.584,25.226 C 40.78,25.158 41.063,25.03 41.221,24.952 C 41.29,24.913 41.329,24.893 41.369,24.893 C 41.408,24.893 41.427,24.922 41.418,24.971 C 41.418,25.011 41.397,25.57 41.393,25.996 L 41.388,26.585 C 41.555,26.423 41.81,26.335 42.06,26.335 C 42.365,26.335 42.624,26.506 42.777,26.746 C 42.865,26.884 42.919,27.09 42.919,27.359 C 42.919,27.899 42.438,28.497 41.84,28.497 C 41.546,28.497 41.35,28.438 41.213,28.369 L 41.02,28.482 z M 41.388,27.379 C 41.388,27.791 41.398,27.948 41.457,28.095 C 41.516,28.213 41.653,28.316 41.82,28.316 C 41.975,28.316 42.153,28.257 42.265,28.065 C 42.369,27.889 42.392,27.732 42.392,27.516 C 42.392,26.947 42.158,26.629 41.77,26.629 C 41.632,26.629 41.496,26.678 41.387,26.776 L 41.387,27.379 L 41.388,27.379 z"
   id="path2821"
   style="fill:#31875a" />

	<path
   d="M 45.178,26.625 C 45.407,26.855 45.516,27.11 45.516,27.4 C 45.516,27.674 45.399,27.939 45.212,28.145 C 45.011,28.371 44.717,28.498 44.388,28.498 C 44.08,28.498 43.815,28.41 43.594,28.145 C 43.379,27.89 43.329,27.684 43.329,27.385 C 43.329,27.15 43.446,26.806 43.74,26.571 C 43.981,26.375 44.236,26.336 44.437,26.336 C 44.766,26.335 45.011,26.462 45.178,26.625 M 44.918,27.384 C 44.918,26.845 44.634,26.531 44.407,26.531 C 44.28,26.531 44.181,26.57 44.098,26.663 C 43.946,26.835 43.887,27.041 43.887,27.399 C 43.887,27.683 43.907,27.87 44.039,28.08 C 44.123,28.213 44.23,28.291 44.427,28.291 C 44.751,28.292 44.918,27.884 44.918,27.384"
   id="path2823"
   style="fill:#31875a" />

	<path
   d="M 46.192,27.178 C 46.192,26.952 46.153,26.874 46.005,26.795 L 45.916,26.746 C 45.887,26.737 45.877,26.727 45.877,26.707 L 45.877,26.678 C 45.877,26.658 45.887,26.648 45.916,26.634 L 46.51,26.354 C 46.539,26.344 46.559,26.335 46.588,26.335 C 46.618,26.335 46.627,26.364 46.632,26.393 L 46.677,26.746 L 46.697,26.746 C 46.864,26.472 47.07,26.305 47.286,26.305 C 47.442,26.305 47.541,26.413 47.541,26.55 C 47.541,26.688 47.403,26.815 47.276,26.815 C 47.207,26.815 47.148,26.795 47.109,26.776 C 47.07,26.746 47.021,26.737 46.971,26.737 C 46.912,26.737 46.825,26.776 46.765,26.879 C 46.726,26.947 46.706,27.055 46.706,27.119 L 46.706,28.065 C 46.706,28.222 46.745,28.271 46.843,28.271 L 47.059,28.271 C 47.088,28.271 47.098,28.281 47.098,28.306 L 47.098,28.418 C 47.098,28.443 47.088,28.453 47.065,28.453 C 47.031,28.453 46.815,28.438 46.457,28.438 C 46.114,28.438 45.922,28.453 45.883,28.453 C 45.86,28.453 45.849,28.443 45.849,28.418 L 45.849,28.311 C 45.849,28.281 45.86,28.271 45.893,28.271 L 46.066,28.271 C 46.143,28.271 46.193,28.232 46.193,28.139 L 46.193,27.178 L 46.192,27.178 z"
   id="path2825"
   style="fill:#31875a" />

	<path
   d="M 48.893,28.198 C 48.787,28.316 48.659,28.399 48.467,28.463 C 48.354,28.497 48.251,28.497 48.154,28.497 C 47.972,28.497 47.815,28.35 47.815,28.076 C 47.815,27.85 47.914,27.629 48.266,27.473 C 48.571,27.325 48.756,27.247 48.865,27.169 L 48.865,26.914 C 48.854,26.815 48.844,26.698 48.787,26.639 C 48.738,26.585 48.648,26.565 48.541,26.565 C 48.453,26.565 48.335,26.595 48.257,26.654 C 48.188,26.703 48.237,26.776 48.237,26.894 C 48.237,27.071 48.148,27.178 47.943,27.178 C 47.854,27.178 47.777,27.12 47.777,27.012 C 47.777,26.874 47.854,26.717 48.002,26.61 C 48.208,26.453 48.473,26.335 48.796,26.335 C 49.071,26.335 49.159,26.394 49.248,26.472 C 49.354,26.57 49.365,26.708 49.365,26.84 L 49.375,27.615 L 49.375,27.85 C 49.375,28.115 49.414,28.193 49.502,28.193 C 49.571,28.193 49.64,28.154 49.659,28.115 C 49.679,28.086 49.688,28.086 49.708,28.095 L 49.767,28.135 C 49.788,28.144 49.797,28.164 49.778,28.213 C 49.728,28.301 49.611,28.497 49.327,28.497 C 49.14,28.497 48.983,28.409 48.915,28.198 L 48.893,28.198 L 48.893,28.198 z M 48.864,27.35 C 48.647,27.487 48.325,27.571 48.325,27.929 C 48.325,28.13 48.431,28.228 48.55,28.228 C 48.688,28.218 48.864,28.081 48.864,27.992 L 48.864,27.35 z"
   id="path2827"
   style="fill:#31875a" />

	<path
   d="M 49.991,26.664 C 49.952,26.664 49.923,26.644 49.923,26.595 C 49.923,26.556 49.952,26.527 50.017,26.502 C 50.154,26.453 50.58,26.09 50.688,25.884 C 50.708,25.845 50.737,25.835 50.767,25.835 C 50.805,25.835 50.826,25.865 50.826,25.904 L 50.805,26.389 L 51.452,26.389 C 51.482,26.389 51.492,26.409 51.487,26.429 L 51.438,26.635 C 51.432,26.654 51.417,26.664 51.388,26.664 L 50.794,26.664 C 50.784,26.87 50.78,27.105 50.78,27.321 L 50.78,27.762 C 50.78,28.145 50.941,28.223 51.039,28.223 C 51.147,28.223 51.255,28.199 51.324,28.164 C 51.358,28.15 51.373,28.15 51.383,28.174 L 51.412,28.233 C 51.422,28.262 51.412,28.282 51.392,28.302 C 51.324,28.351 51.118,28.498 50.775,28.498 C 50.48,28.498 50.259,28.262 50.259,28.057 C 50.259,27.88 50.275,27.488 50.275,27.301 L 50.275,26.664 L 49.991,26.664 z"
   id="path2829"
   style="fill:#31875a" />

	<path
   d="M 53.546,26.625 C 53.775,26.855 53.884,27.11 53.884,27.4 C 53.884,27.674 53.767,27.939 53.58,28.145 C 53.379,28.371 53.085,28.498 52.756,28.498 C 52.448,28.498 52.183,28.41 51.962,28.145 C 51.746,27.89 51.697,27.684 51.697,27.385 C 51.697,27.15 51.814,26.806 52.108,26.571 C 52.348,26.375 52.603,26.336 52.804,26.336 C 53.134,26.335 53.379,26.462 53.546,26.625 M 53.286,27.384 C 53.286,26.845 53.002,26.531 52.775,26.531 C 52.648,26.531 52.549,26.57 52.466,26.663 C 52.314,26.835 52.255,27.041 52.255,27.399 C 52.255,27.683 52.275,27.87 52.407,28.08 C 52.491,28.213 52.598,28.291 52.795,28.291 C 53.119,28.292 53.286,27.884 53.286,27.384"
   id="path2831"
   style="fill:#31875a" />

	<path
   d="M 54.561,27.178 C 54.561,26.952 54.522,26.874 54.374,26.795 L 54.285,26.746 C 54.256,26.737 54.246,26.727 54.246,26.707 L 54.246,26.678 C 54.246,26.658 54.256,26.648 54.285,26.634 L 54.879,26.354 C 54.908,26.344 54.928,26.335 54.957,26.335 C 54.986,26.335 54.996,26.364 55.001,26.393 L 55.045,26.746 L 55.066,26.746 C 55.233,26.472 55.439,26.305 55.655,26.305 C 55.811,26.305 55.909,26.413 55.909,26.55 C 55.909,26.688 55.772,26.815 55.645,26.815 C 55.576,26.815 55.516,26.795 55.478,26.776 C 55.439,26.746 55.389,26.737 55.34,26.737 C 55.281,26.737 55.194,26.776 55.134,26.879 C 55.094,26.947 55.075,27.055 55.075,27.119 L 55.075,28.065 C 55.075,28.222 55.114,28.271 55.212,28.271 L 55.428,28.271 C 55.457,28.271 55.467,28.281 55.467,28.306 L 55.467,28.418 C 55.467,28.443 55.457,28.453 55.433,28.453 C 55.399,28.453 55.183,28.438 54.826,28.438 C 54.483,28.438 54.291,28.453 54.252,28.453 C 54.227,28.453 54.218,28.443 54.218,28.418 L 54.218,28.311 C 54.218,28.281 54.227,28.271 54.262,28.271 L 54.434,28.271 C 54.512,28.271 54.562,28.232 54.562,28.139 L 54.562,27.178 L 54.561,27.178 z"
   id="path2833"
   style="fill:#31875a" />

	<path
   d="M 56.084,29.508 C 56.084,29.371 56.192,29.263 56.319,29.263 C 56.398,29.263 56.476,29.292 56.535,29.322 C 56.574,29.341 56.634,29.341 56.663,29.312 C 56.722,29.253 56.976,28.714 57.035,28.527 C 57.007,28.38 56.437,26.85 56.403,26.767 C 56.349,26.64 56.3,26.561 56.202,26.561 L 56.104,26.561 C 56.074,26.561 56.064,26.546 56.064,26.522 L 56.064,26.414 C 56.064,26.394 56.074,26.379 56.104,26.379 C 56.143,26.379 56.261,26.394 56.623,26.394 C 56.908,26.394 57.056,26.379 57.114,26.379 C 57.143,26.379 57.153,26.389 57.153,26.419 L 57.153,26.527 C 57.153,26.546 57.143,26.561 57.119,26.561 L 57.046,26.561 C 56.996,26.561 56.957,26.59 56.973,26.664 C 56.987,26.762 57.282,27.762 57.33,27.87 L 57.35,27.87 C 57.438,27.684 57.782,26.85 57.806,26.747 C 57.834,26.62 57.79,26.561 57.702,26.561 L 57.624,26.561 C 57.595,26.561 57.584,26.546 57.584,26.527 L 57.584,26.419 C 57.584,26.394 57.595,26.379 57.624,26.379 C 57.684,26.379 57.781,26.394 58.047,26.394 C 58.212,26.394 58.33,26.379 58.374,26.379 C 58.398,26.379 58.408,26.394 58.408,26.419 L 58.408,26.522 C 58.408,26.551 58.398,26.561 58.38,26.561 L 58.32,26.561 C 58.271,26.561 58.197,26.576 58.144,26.644 C 58.046,26.772 57.711,27.507 57.359,28.302 C 57.114,28.831 56.908,29.292 56.82,29.449 C 56.741,29.577 56.643,29.773 56.378,29.773 C 56.202,29.772 56.084,29.665 56.084,29.508"
   id="path2835"
   style="fill:#31875a" />

	<path
   d="M 26.43,1.542 C 27.444,2.366 28.269,3.705 28.269,5.545 C 28.269,6.545 27.998,7.6 27.269,8.52 C 26.403,9.602 25.24,10.44 23.21,10.44 C 22.399,10.44 21.236,10.197 20.154,9.548 C 19.194,8.966 18.18,7.492 18.18,5.545 C 18.18,4.733 18.409,3.448 19.424,2.191 C 20.613,0.73 22.073,0.46 23.237,0.46 C 24.238,0.459 25.32,0.648 26.43,1.542 M 21.236,1.812 C 20.411,2.61 20.019,4.003 20.019,5.085 C 20.019,8.601 22.183,9.845 23.319,9.845 C 26.05,9.845 26.483,6.816 26.483,5.68 C 26.483,2.732 24.482,1.055 23.183,1.055 C 22.94,1.054 22.156,0.918 21.236,1.812"
   id="path2837"
   style="fill:#31875a" />

	<path
   d="M 30.292,7.215 C 30.204,7.467 29.665,9.038 29.61,9.335 C 29.588,9.423 29.588,9.511 29.588,9.566 C 29.588,9.709 29.765,9.83 29.984,9.83 L 30.445,9.83 C 30.533,9.83 30.555,9.852 30.555,9.885 L 30.555,10.159 C 30.555,10.225 30.533,10.269 30.467,10.269 C 30.314,10.269 29.852,10.236 29.082,10.236 C 28.269,10.236 28.027,10.269 27.873,10.269 C 27.808,10.269 27.808,10.203 27.808,10.126 L 27.808,9.918 C 27.808,9.852 27.829,9.83 27.873,9.83 L 28.203,9.83 C 28.511,9.83 28.708,9.676 28.906,9.335 C 29.016,9.138 29.807,7.16 30.137,6.236 C 30.213,6.017 31.104,3.643 31.213,3.358 C 31.235,3.248 31.302,3.05 31.235,2.984 C 31.202,2.951 31.169,2.885 31.169,2.852 C 31.169,2.808 31.191,2.764 31.279,2.742 C 31.63,2.654 32.235,2.325 32.366,2.193 C 32.432,2.127 32.476,2.083 32.531,2.083 C 32.597,2.083 32.641,2.215 32.663,2.281 C 32.861,2.962 33.719,5.423 33.916,6.127 C 34.18,6.984 34.884,9.028 35.036,9.324 C 35.234,9.698 35.52,9.83 35.74,9.83 L 36.092,9.83 C 36.157,9.83 36.18,9.852 36.18,9.907 L 36.18,10.137 C 36.18,10.203 36.158,10.269 36.071,10.269 C 35.873,10.269 35.653,10.236 34.444,10.236 C 33.521,10.236 33.148,10.269 32.906,10.269 C 32.818,10.269 32.796,10.203 32.796,10.137 L 32.796,9.918 C 32.796,9.852 32.818,9.83 32.885,9.83 L 33.17,9.83 C 33.478,9.83 33.566,9.72 33.499,9.423 C 33.411,9.028 32.973,7.621 32.84,7.215 L 30.292,7.215 z M 32.731,6.775 C 32.621,6.456 31.874,3.951 31.808,3.731 C 31.764,3.599 31.742,3.533 31.698,3.533 C 31.632,3.533 31.588,3.577 31.555,3.676 C 31.511,3.819 30.522,6.522 30.445,6.775 L 32.731,6.775 z"
   id="path2839"
   style="fill:#31875a" />

	<path
   d="M 38.797,7.27 C 38.797,7.819 38.818,9.424 38.829,9.589 C 38.841,9.742 38.95,9.83 39.083,9.83 L 39.499,9.83 C 39.544,9.83 39.588,9.852 39.588,9.885 L 39.588,10.182 C 39.588,10.226 39.566,10.27 39.522,10.27 C 39.39,10.27 39.061,10.237 38.116,10.237 C 37.172,10.237 36.819,10.27 36.709,10.27 C 36.665,10.27 36.644,10.248 36.644,10.193 L 36.644,9.896 C 36.644,9.852 36.665,9.83 36.709,9.83 L 37.105,9.83 C 37.302,9.83 37.391,9.742 37.402,9.622 C 37.413,9.534 37.434,7.534 37.434,6.171 L 37.434,5.534 C 37.434,5.336 37.413,3.226 37.413,3.127 C 37.413,2.996 37.348,2.864 37.084,2.864 L 36.754,2.864 C 36.688,2.864 36.665,2.842 36.665,2.787 L 36.665,2.49 C 36.665,2.446 36.687,2.424 36.754,2.424 C 36.886,2.424 37.216,2.457 38.16,2.457 C 39.017,2.457 39.368,2.424 39.522,2.424 C 39.588,2.424 39.61,2.446 39.61,2.501 L 39.61,2.776 C 39.61,2.842 39.589,2.864 39.522,2.864 L 39.171,2.864 C 38.95,2.864 38.841,2.93 38.841,3.182 C 38.841,3.358 38.797,5.072 38.797,5.6 L 38.797,6.083 L 38.994,6.083 C 39.127,6.083 39.235,6.039 39.367,5.929 C 39.576,5.754 41.488,3.369 41.609,3.204 C 41.763,2.985 41.631,2.853 41.433,2.853 L 41.268,2.853 C 41.224,2.853 41.213,2.831 41.213,2.776 L 41.213,2.512 C 41.213,2.446 41.234,2.424 41.278,2.424 C 41.41,2.424 41.85,2.457 42.575,2.457 C 43.015,2.457 43.388,2.424 43.52,2.424 C 43.586,2.424 43.608,2.446 43.608,2.501 L 43.608,2.776 C 43.608,2.842 43.564,2.864 43.52,2.864 L 43.3,2.864 C 43.146,2.864 42.904,2.908 42.685,3.05 C 42.168,3.391 40.619,5.182 40.201,5.732 C 40.641,6.281 42.884,9.182 43.213,9.566 C 43.41,9.808 43.696,9.83 43.872,9.83 L 44.113,9.83 C 44.179,9.83 44.201,9.874 44.201,9.907 L 44.201,10.182 C 44.201,10.248 44.18,10.27 44.113,10.27 C 44.005,10.27 43.608,10.237 42.597,10.237 C 41.674,10.237 41.256,10.27 41.102,10.27 C 41.059,10.27 41.037,10.248 41.037,10.182 L 41.037,9.907 C 41.037,9.863 41.059,9.841 41.102,9.841 L 41.256,9.841 C 41.453,9.841 41.476,9.644 41.432,9.556 C 41.322,9.336 39.542,6.787 39.366,6.611 C 39.257,6.501 39.126,6.457 38.993,6.457 L 38.796,6.457 L 38.796,7.27 L 38.797,7.27 z"
   id="path2841"
   style="fill:#31875a" />

	<path
   d="M 20.857,18.02 C 20.857,18.832 20.884,20.346 20.912,20.549 C 20.953,20.82 21.047,21.063 21.264,21.063 L 21.94,21.063 C 22.021,21.063 22.048,21.103 22.048,21.158 L 22.048,21.482 C 22.048,21.577 22.007,21.604 21.899,21.604 C 21.723,21.604 21.454,21.563 20.047,21.563 C 18.721,21.563 18.397,21.604 18.261,21.604 C 18.18,21.604 18.153,21.563 18.153,21.482 L 18.153,21.17 C 18.153,21.102 18.18,21.062 18.234,21.062 L 18.694,21.062 C 18.993,21.062 19.209,20.981 19.209,20.616 C 19.235,19.263 19.235,17.992 19.235,16.721 L 19.235,13.164 C 19.235,12.704 19.047,12.488 18.802,12.488 L 18.275,12.488 C 18.208,12.488 18.18,12.461 18.18,12.407 L 18.18,12.042 C 18.18,11.974 18.207,11.947 18.275,11.947 C 18.371,11.947 18.802,11.988 20.129,11.988 C 20.886,11.988 22.13,11.947 22.536,11.947 C 23.618,11.947 24.456,12.312 24.997,12.799 C 25.483,13.232 25.727,13.8 25.727,14.314 C 25.727,16.018 24.7,16.721 23.211,16.964 L 23.211,17.018 C 23.59,17.154 23.833,17.397 24.022,17.64 C 24.185,17.857 25.023,19.128 25.132,19.29 C 25.213,19.426 26.078,20.643 26.281,20.832 C 26.538,21.062 26.917,21.089 27.241,21.089 C 27.322,21.089 27.348,21.13 27.348,21.184 L 27.348,21.468 C 27.348,21.562 27.322,21.603 27.241,21.603 C 27.133,21.603 26.781,21.562 25.916,21.562 C 25.537,21.562 25.022,21.59 24.726,21.603 C 24.563,21.481 24.306,21.116 24.131,20.832 C 23.887,20.454 23.36,19.48 23.237,19.263 C 23.102,19.02 22.723,18.398 22.508,18.1 C 22.17,17.627 21.859,17.262 21.291,17.262 C 21.236,17.262 21.007,17.275 20.857,17.289 L 20.857,18.02 L 20.857,18.02 z M 20.885,16.802 C 21.074,16.829 21.237,16.856 21.399,16.856 C 23.509,16.856 23.941,15.152 23.941,14.53 C 23.941,13.908 23.684,13.326 23.346,13.015 C 22.859,12.583 22.237,12.434 21.561,12.434 C 21.345,12.434 21.183,12.447 21.075,12.515 C 20.967,12.583 20.913,12.745 20.913,12.907 L 20.885,16.802 z"
   id="path2843"
   style="fill:#31875a" />

	<path
   d="M 29.981,18.002 C 29.981,18.112 30.002,20.639 30.002,20.76 C 30.002,21.112 30.178,21.156 30.441,21.156 L 30.903,21.156 C 30.947,21.156 30.991,21.178 30.991,21.232 L 30.991,21.507 C 30.991,21.573 30.947,21.595 30.881,21.595 C 30.749,21.595 30.31,21.562 29.277,21.562 C 28.177,21.562 27.694,21.595 27.585,21.595 C 27.519,21.595 27.497,21.573 27.497,21.518 L 27.497,21.221 C 27.497,21.178 27.518,21.156 27.585,21.156 L 28.024,21.156 C 28.244,21.156 28.486,21.134 28.53,20.837 C 28.551,20.683 28.574,18.31 28.574,17.716 L 28.574,16.947 C 28.574,16.683 28.552,14.705 28.541,14.563 C 28.508,14.299 28.398,14.189 28.09,14.189 L 27.52,14.189 C 27.455,14.189 27.432,14.167 27.432,14.112 L 27.432,13.826 C 27.432,13.772 27.454,13.75 27.498,13.75 C 27.629,13.75 28.201,13.782 29.278,13.782 C 30.333,13.782 30.683,13.75 30.838,13.75 C 30.904,13.75 30.926,13.793 30.926,13.848 L 30.926,14.101 C 30.926,14.167 30.882,14.189 30.838,14.189 L 30.421,14.189 C 30.179,14.189 30.003,14.277 30.003,14.486 C 30.003,14.596 29.982,17.013 29.982,17.145 L 29.982,18.002 L 29.981,18.002 z"
   id="path2845"
   style="fill:#31875a" />

	<path
   d="M 32.915,16.508 C 32.915,16.222 32.871,14.662 32.849,14.497 C 32.828,14.234 32.673,14.19 32.453,14.19 L 31.86,14.19 C 31.816,14.19 31.772,14.168 31.772,14.113 L 31.772,13.816 C 31.772,13.772 31.816,13.75 31.871,13.75 C 32.189,13.75 32.761,13.783 33.53,13.783 C 34.079,13.783 34.629,13.75 35.177,13.75 C 36.65,13.75 37.836,13.893 38.847,14.75 C 39.573,15.343 40.078,16.266 40.078,17.541 C 40.078,18.794 39.725,19.629 39.001,20.42 C 37.924,21.585 36.21,21.596 35.463,21.596 C 35.045,21.596 33.924,21.563 33.375,21.563 C 32.408,21.563 31.969,21.596 31.815,21.596 C 31.771,21.596 31.749,21.574 31.749,21.497 L 31.749,21.222 C 31.749,21.178 31.771,21.156 31.837,21.156 L 32.474,21.156 C 32.695,21.156 32.804,21.068 32.836,20.881 C 32.87,20.662 32.914,18.178 32.914,17.343 L 32.914,16.508 L 32.915,16.508 z M 34.299,17.585 C 34.299,17.717 34.321,19.585 34.321,20.266 C 34.321,20.486 34.365,20.662 34.518,20.881 C 34.651,21.09 35.068,21.178 35.486,21.178 C 36.342,21.178 37.221,20.793 37.77,20.068 C 38.233,19.475 38.561,18.574 38.561,17.563 C 38.561,16.684 38.189,15.739 37.682,15.167 C 37.089,14.53 36.122,14.135 35.221,14.135 C 34.979,14.135 34.695,14.135 34.518,14.245 C 34.365,14.332 34.321,14.508 34.321,14.728 C 34.299,15.19 34.299,16.618 34.299,16.794 L 34.299,17.585 z"
   id="path2847"
   style="fill:#31875a" />

	<path
   d="M 48.649,20.475 C 48.649,20.629 48.693,20.739 48.693,20.827 C 48.693,20.915 48.627,20.958 48.517,21.002 C 47.616,21.464 46.715,21.728 45.397,21.728 C 44.32,21.728 42.979,21.354 42.232,20.453 C 41.551,19.706 41.221,18.761 41.221,17.464 C 41.221,16.453 41.659,15.398 42.474,14.695 C 43.265,13.992 44.276,13.618 45.594,13.618 C 46.649,13.618 47.484,13.948 47.835,14.212 C 47.968,14.311 48.033,14.277 48.1,14.19 L 48.231,14.014 C 48.286,13.937 48.319,13.904 48.385,13.904 C 48.494,13.904 48.517,13.97 48.517,14.058 L 48.626,16.255 C 48.626,16.343 48.626,16.398 48.582,16.409 L 48.318,16.453 C 48.252,16.464 48.23,16.431 48.208,16.365 C 48.056,15.926 47.77,15.311 47.329,14.849 C 46.956,14.453 46.342,14.08 45.505,14.08 C 44.824,14.08 44.232,14.256 43.638,14.937 C 43.111,15.53 42.737,16.453 42.737,17.42 C 42.737,18.717 43.089,19.838 43.726,20.475 C 44.253,20.98 44.781,21.222 45.484,21.222 C 46.188,21.222 46.605,21.134 46.979,20.936 C 47.221,20.805 47.243,20.497 47.243,19.926 L 47.243,19.123 C 47.243,18.728 47.132,18.618 46.847,18.618 L 46.385,18.618 C 46.32,18.618 46.297,18.574 46.297,18.519 L 46.297,18.266 C 46.297,18.2 46.319,18.179 46.362,18.179 C 46.494,18.179 47.022,18.211 47.924,18.211 C 48.847,18.211 49.22,18.179 49.329,18.179 C 49.417,18.179 49.439,18.2 49.439,18.255 L 49.439,18.53 C 49.439,18.596 49.417,18.618 49.351,18.618 L 48.978,18.618 C 48.78,18.618 48.648,18.706 48.648,19.024 L 48.648,20.475 L 48.649,20.475 z"
   id="path2849"
   style="fill:#31875a" />

	<path
   d="M 52.418,18.376 C 52.429,18.969 52.451,20.046 52.451,20.244 C 52.451,20.815 52.648,21.035 52.89,21.101 C 53.065,21.145 53.329,21.189 53.747,21.189 C 53.943,21.189 54.45,21.167 54.67,21.145 C 54.867,21.123 55.285,21.013 55.57,20.771 C 55.767,20.596 56.383,19.87 56.592,19.607 C 56.635,19.552 56.668,19.541 56.712,19.563 L 56.888,19.673 C 56.921,19.695 56.932,19.728 56.91,19.782 L 56.383,21.431 C 56.35,21.53 56.273,21.595 56.141,21.595 C 56.086,21.595 55.844,21.584 55.163,21.574 C 54.471,21.574 53.339,21.563 51.504,21.563 C 51.097,21.563 50.801,21.574 50.569,21.574 C 50.349,21.584 50.196,21.595 50.097,21.595 C 50.032,21.595 50.009,21.574 50.009,21.508 L 50.009,21.244 C 50.009,21.178 50.031,21.156 50.119,21.156 L 50.492,21.156 C 50.998,21.156 51.041,21.09 51.041,20.683 L 51.041,18.068 L 51.041,16.992 C 51.041,16.09 51.02,14.728 50.998,14.574 C 50.954,14.277 50.844,14.189 50.514,14.189 L 50.1,14.189 C 50.055,14.189 50.035,14.167 50.035,14.113 L 50.035,13.827 C 50.035,13.772 50.046,13.75 50.1,13.75 C 50.341,13.75 50.737,13.794 51.638,13.783 L 51.945,13.783 C 52.429,13.783 54.957,13.761 55.44,13.761 C 55.617,13.761 55.825,13.75 55.879,13.75 C 55.933,13.75 55.956,13.772 55.967,13.816 C 56.011,13.959 56.429,15.453 56.473,15.563 C 56.495,15.629 56.484,15.662 56.44,15.684 L 56.243,15.772 C 56.21,15.783 56.177,15.772 56.143,15.717 C 56.099,15.651 55.199,14.64 54.934,14.486 C 54.705,14.354 54.408,14.211 54.099,14.2 L 52.429,14.156 L 52.408,17.332 C 52.737,17.332 53.528,17.31 53.661,17.277 C 53.901,17.233 54.034,17.145 54.166,16.882 C 54.231,16.739 54.342,16.464 54.342,16.266 C 54.342,16.2 54.386,16.178 54.43,16.178 L 54.716,16.2 C 54.76,16.2 54.793,16.222 54.782,16.288 C 54.76,16.464 54.76,17.189 54.76,17.475 C 54.76,17.915 54.804,18.442 54.825,18.684 C 54.825,18.739 54.804,18.75 54.737,18.761 L 54.496,18.805 C 54.452,18.816 54.43,18.794 54.408,18.728 C 54.363,18.552 54.287,18.31 54.231,18.178 C 54.132,17.958 53.923,17.805 53.682,17.783 C 53.286,17.739 52.759,17.717 52.408,17.717 L 52.418,18.376 z"
   id="path2851"
   style="fill:#31875a" />

</g>
  </g>
</svg>